<svg width="74" height="56" viewBox="0 0 74 56" fill="none" xmlns="http://www.w3.org/2000/svg">
<path d="M52.1355 39.9204C52.1355 36.1755 49.093 33.1411 45.348 33.1411C42.9875 33.1411 40.9169 34.3459 39.6999 36.1714C37.0984 39.8755 32.8022 42.3055 27.93 42.3055C19.9868 42.3095 13.5382 35.8692 13.5342 27.9259C13.5301 19.9827 19.9704 13.5382 27.9178 13.5342C32.7817 13.5342 37.0821 15.9559 39.6836 19.656C39.7326 19.7213 39.7857 19.7867 39.8306 19.852C39.8469 19.8765 39.8674 19.901 39.8837 19.9255C41.117 21.5958 43.0977 22.6862 45.3317 22.6822C49.0685 22.6822 52.0947 19.6478 52.0947 15.911C52.0947 14.4449 51.625 13.0931 50.8368 11.9863L50.845 11.9782C45.7931 4.73736 37.4129 -0.0040813 27.9137 2.63611e-06C12.4887 0.0081705 -0.00408293 12.5132 1.00101e-06 27.9341C0.00816887 43.355 12.5132 55.8519 27.9341 55.8437C37.2087 55.8396 45.4133 51.3024 50.4897 44.3352C51.5147 43.1508 52.1355 41.6071 52.1355 39.9204Z" fill="url(#paint0_linear_0_1)"/>
<path d="M63.0559 17.6753C59.4498 17.6753 56.2807 19.5539 54.4633 22.3718C52.5112 25.251 49.2236 27.1419 45.4909 27.1459C42.0441 27.1459 38.977 25.5369 36.9882 23.0334C35.2525 19.8479 31.8792 17.6875 27.9953 17.6875C22.3473 17.6916 17.7651 22.2738 17.7692 27.926C17.7733 33.5781 22.3554 38.1562 28.0076 38.1521C31.6464 38.1521 34.84 36.2368 36.6492 33.3658C38.6136 30.6009 41.8399 28.7918 45.4909 28.7877C49.2277 28.7877 52.5234 30.6785 54.4756 33.5536L54.5205 33.5373C56.3542 36.3103 59.4947 38.1399 63.0641 38.1358C68.7121 38.1358 73.2943 33.5536 73.2943 27.9015C73.2902 22.2534 68.704 17.6753 63.0559 17.6753ZM63.0845 32.6674C60.2829 32.6674 58.0122 30.3967 58.0122 27.5952C58.0122 24.7936 60.2829 22.5229 63.0845 22.5229C65.8861 22.5229 68.1567 24.7936 68.1567 27.5952C68.1567 30.3967 65.8861 32.6674 63.0845 32.6674Z" fill="url(#paint1_linear_0_1)"/>
<defs>
<linearGradient id="paint0_linear_0_1" x1="0.000858627" y1="27.9219" x2="52.1343" y2="27.9219" gradientUnits="userSpaceOnUse">
<stop offset="0.0101" stop-color="#0E448C"/>
<stop offset="0.5235" stop-color="#03BFC0"/>
<stop offset="1" stop-color="#B7DBF3"/>
</linearGradient>
<linearGradient id="paint1_linear_0_1" x1="17.7668" y1="27.916" x2="73.2919" y2="27.916" gradientUnits="userSpaceOnUse">
<stop stop-color="#0E448C"/>
<stop offset="0.2777" stop-color="#03BFC0"/>
<stop offset="1" stop-color="#B7DBF3"/>
</linearGradient>
</defs>
</svg>
