<svg width="17" height="17" viewBox="0 0 17 17" fill="none" xmlns="http://www.w3.org/2000/svg">
  <circle cx="8.5" cy="8.5" r="8.5" fill="white" />
  <path fill-rule="evenodd" clip-rule="evenodd"
    d="M6.0625 7.25C6.0625 5.90381 7.1538 4.8125 8.5 4.8125C9.84619 4.8125 10.9375 5.90381 10.9375 7.25C10.9375 8.59619 9.84619 9.6875 8.5 9.6875C7.1538 9.6875 6.0625 8.59619 6.0625 7.25Z"
    fill="#152A46" />
  <path fill-rule="evenodd" clip-rule="evenodd"
    d="M4.03192 14.8904C4.07381 12.4584 6.05815 10.5 8.5 10.5C10.9419 10.5 12.9263 12.4585 12.9681 14.8906C12.9708 15.0519 12.8779 15.1995 12.7313 15.2668C11.4427 15.8581 10.0094 16.1875 8.50017 16.1875C6.99084 16.1875 5.55736 15.858 4.26867 15.2666C4.12206 15.1993 4.02914 15.0517 4.03192 14.8904Z"
    fill="#152A46" />
</svg>