<svg width="116" height="88" viewBox="0 0 116 88" fill="none" xmlns="http://www.w3.org/2000/svg">
<path d="M82.0361 62.8156C82.0361 56.9228 77.2487 52.1482 71.3559 52.1482C67.6416 52.1482 64.3835 54.0439 62.4685 56.9164C58.3751 62.7449 51.6148 66.5684 43.9484 66.5684C31.4495 66.5748 21.3027 56.4408 21.2962 43.942C21.2898 31.4431 31.4238 21.3027 43.9291 21.2962C51.5827 21.2962 58.3494 25.1069 62.4428 30.929C62.52 31.0319 62.6035 31.1347 62.6742 31.2375C62.6999 31.276 62.732 31.3146 62.7577 31.3532C64.6984 33.9814 67.8151 35.6972 71.3302 35.6908C77.2101 35.6908 81.9719 30.9162 81.9719 25.0363C81.9719 22.7293 81.2329 20.6022 79.9926 18.8607L80.0055 18.8479C72.0564 7.45433 58.8699 -0.00642199 43.9227 4.14796e-06C19.6512 0.0128564 -0.00642457 19.6897 1.5751e-06 43.9548C0.0128539 68.2199 19.6897 87.8839 43.9548 87.8711C58.5486 87.8647 71.4587 80.7252 79.4464 69.7622C81.0594 67.8986 82.0361 65.4696 82.0361 62.8156Z" fill="url(#paint0_linear_89_2671)"/>
<path d="M99.2195 27.8125C93.5452 27.8125 88.5585 30.7685 85.6989 35.2026C82.6272 39.733 77.4541 42.7083 71.5806 42.7147C66.157 42.7147 61.3309 40.1828 58.2014 36.2436C55.4703 31.2312 50.1623 27.8318 44.051 27.8318C35.1637 27.8382 27.9535 35.0483 27.96 43.9421C27.9664 52.8359 35.1765 60.0396 44.0703 60.0332C49.796 60.0332 54.8212 57.0193 57.668 52.5017C60.759 48.1512 65.8357 45.3045 71.5806 45.298C77.4605 45.298 82.6464 48.2733 85.7181 52.7973L85.7888 52.7716C88.6742 57.135 93.6159 60.0139 99.2323 60.0075C108.12 60.0075 115.33 52.7973 115.33 43.9036C115.323 35.0162 108.107 27.8125 99.2195 27.8125ZM99.2645 51.4029C94.8561 51.4029 91.2832 47.8299 91.2832 43.4216C91.2832 39.0133 94.8561 35.4403 99.2645 35.4403C103.673 35.4403 107.246 39.0133 107.246 43.4216C107.246 47.8299 103.673 51.4029 99.2645 51.4029Z" fill="url(#paint1_linear_89_2671)"/>
<defs>
<linearGradient id="paint0_linear_89_2671" x1="0.00135107" y1="43.9355" x2="82.0343" y2="43.9355" gradientUnits="userSpaceOnUse">
<stop offset="0.0101" stop-color="#0E448C"/>
<stop offset="0.5235" stop-color="#03BFC0"/>
<stop offset="1" stop-color="#B7DBF3"/>
</linearGradient>
<linearGradient id="paint1_linear_89_2671" x1="27.9562" y1="43.9264" x2="115.326" y2="43.9264" gradientUnits="userSpaceOnUse">
<stop stop-color="#0E448C"/>
<stop offset="0.2777" stop-color="#03BFC0"/>
<stop offset="1" stop-color="#B7DBF3"/>
</linearGradient>
</defs>
</svg>
