<svg width="129" height="159" viewBox="0 0 129 159" fill="none" xmlns="http://www.w3.org/2000/svg">
<path d="M104.302 105.05C104.302 127.197 86.3487 145.15 64.2021 145.15C42.0554 145.15 24.1021 127.197 24.1021 105.05C24.1021 82.9036 42.0554 64.9502 64.2021 64.9502C86.3487 64.9502 104.302 82.9036 104.302 105.05Z" stroke="black" stroke-width="4"/>
<path d="M83.9701 77L65.3024 91.7992L73.3034 91.2966L57.4859 124.034L51.0106 108.042L45.3848 121.009L49.7029 117.684L56.5619 134.649L57.1077 136L57.7653 134.663L78.4542 92.6038L84 99.4364L83.9701 77Z" fill="black"/>
<path d="M44.9787 123.754C43.3338 123.754 42 125.071 42 126.697C42 127.232 42 127.54 42 128.076C42 129.701 43.3338 131.02 44.9787 131.02C46.6236 131.02 47.9574 129.701 47.9574 128.076C47.9574 127.54 47.9574 127.232 47.9574 126.697C47.9556 125.071 46.6236 123.754 44.9787 123.754Z" fill="white"/>
<path d="M115.302 106.25C115.102 115.05 112.602 123.95 107.602 131.95C92.7019 155.95 61.2019 163.25 37.2019 148.35C13.2019 133.45 5.90195 101.95 20.8019 77.95C35.7019 53.95 67.2019 46.65 91.2019 61.55" stroke="#2C81CF" stroke-width="5" stroke-miterlimit="10" stroke-linecap="round" stroke-linejoin="round"/>
<path d="M63.302 53.8501V8.3501" stroke="#3391E7" stroke-width="5" stroke-miterlimit="10" stroke-linecap="round" stroke-linejoin="round"/>
<path d="M59.5021 2.25L50.9021 17.15C49.2021 20.15 51.3021 23.75 54.7021 23.75H71.9021C75.3021 23.75 77.4021 20.05 75.7021 17.15L67.102 2.25C65.502 -0.75 61.2021 -0.75 59.5021 2.25Z" fill="#2C81CF"/>
<path d="M115.302 105.05V33.5503" stroke="#2C81CF" stroke-width="5" stroke-miterlimit="10" stroke-linecap="round" stroke-linejoin="round"/>
<path d="M111.502 27.4502L102.902 42.3502C101.202 45.3502 103.302 48.9502 106.702 48.9502H123.902C127.302 48.9502 129.402 45.2502 127.702 42.3502L119.102 27.4502C117.402 24.4502 113.202 24.4502 111.502 27.4502Z" fill="#2C81CF"/>
<path d="M13.1021 105.05V33.5503" stroke="#3391E7" stroke-width="5" stroke-miterlimit="10" stroke-linecap="round" stroke-linejoin="round"/>
<path d="M9.20202 27.4502L0.602011 42.3502C-1.09799 45.3502 1.00203 48.9502 4.40203 48.9502H21.602C25.002 48.9502 27.102 45.2502 25.402 42.3502L16.802 27.4502C15.202 24.4502 10.902 24.4502 9.20202 27.4502Z" fill="#2C81CF"/>
</svg>
