<svg width="134" height="134" viewBox="0 0 134 134" fill="none" xmlns="http://www.w3.org/2000/svg">
<path d="M118.6 67C118.6 95.4427 95.5428 118.5 67.1001 118.5C38.6574 118.5 15.6001 95.4427 15.6001 67C15.6001 38.5573 38.6574 15.5 67.1001 15.5C95.5428 15.5 118.6 38.5573 118.6 67Z" stroke="black" stroke-width="4"/>
<path d="M68.8999 92.9004V103.9" stroke="black" stroke-width="5" stroke-miterlimit="10" stroke-linecap="round" stroke-linejoin="round"/>
<path d="M68.8999 30.1001V41.1001" stroke="black" stroke-width="5" stroke-miterlimit="10" stroke-linecap="round" stroke-linejoin="round"/>
<path d="M56.8999 30.1001V103.9" stroke="black" stroke-width="5" stroke-miterlimit="10" stroke-linecap="round" stroke-linejoin="round"/>
<path d="M46.8999 41.1001H72.3999C79.4999 41.1001 85.2999 46.9001 85.2999 54.0001V54.1001C85.2999 61.2001 79.4999 67.0001 72.3999 67.0001H56.8999" stroke="black" stroke-width="5" stroke-miterlimit="10" stroke-linecap="round" stroke-linejoin="round"/>
<path d="M56.8999 67H72.3999C79.4999 67 85.2999 72.8 85.2999 79.9V80C85.2999 87.1 79.4999 92.9 72.3999 92.9H46.8999" stroke="black" stroke-width="5" stroke-miterlimit="10" stroke-linecap="round" stroke-linejoin="round"/>
<path d="M100.7 121.7C90.9 127.7 79.4 131.2 67.1 131.2C31.7 131.2 3 102.5 3 67.1C3 31.7 31.7 3 67.1 3C78.8 3 89.7 6.09998 99.2 11.6" stroke="#3391E7" stroke-width="5" stroke-miterlimit="10" stroke-linecap="round" stroke-linejoin="round"/>
<path d="M122.4 34.5C128 44 131.2 55.2 131.2 67C131.2 81.2 126.6 94.3 118.8 104.9" stroke="#3391E7" stroke-width="5" stroke-miterlimit="10" stroke-linecap="round" stroke-linejoin="round"/>
</svg>
