<svg width="153" height="151" viewBox="0 0 153 151" fill="none" xmlns="http://www.w3.org/2000/svg">
<path d="M116 76.1001C116 97.9153 98.3152 115.6 76.5 115.6C54.6848 115.6 37 97.9153 37 76.1001C37 54.2849 54.6848 36.6001 76.5 36.6001C98.3152 36.6001 116 54.2849 116 76.1001Z" stroke="black" stroke-width="4"/>
<path d="M94.9701 47L76.3024 61.7992L84.3034 61.2966L68.4859 94.0343L62.0106 78.042L56.3848 91.0093L60.7029 87.6841L67.5619 104.649L68.1077 106L68.7653 104.663L89.4542 62.6038L95 69.4364L94.9701 47Z" fill="black"/>
<path d="M55.9787 93.7544C54.3338 93.7544 53 95.0708 53 96.6966C53 97.2323 53 97.5398 53 98.0756C53 99.7013 54.3338 101.02 55.9787 101.02C57.6236 101.02 58.9574 99.7013 58.9574 98.0756C58.9574 97.5398 58.9574 97.2323 58.9574 96.6966C58.9556 95.0708 57.6236 93.7544 55.9787 93.7544Z" fill="black"/>
<path d="M129.5 52.6001H149.9" stroke="#3391E7" stroke-width="5" stroke-miterlimit="10" stroke-linecap="round" stroke-linejoin="round"/>
<path d="M140 76.1001H149.9" stroke="#3391E7" stroke-width="5" stroke-miterlimit="10" stroke-linecap="round" stroke-linejoin="round"/>
<path d="M129.5 99.5H149.9" stroke="#3391E7" stroke-width="5" stroke-miterlimit="10" stroke-linecap="round" stroke-linejoin="round"/>
<path d="M23.4 52.6001H3" stroke="#3391E7" stroke-width="5" stroke-miterlimit="10" stroke-linecap="round" stroke-linejoin="round"/>
<path d="M13.2 76.1001H3" stroke="#3391E7" stroke-width="5" stroke-miterlimit="10" stroke-linecap="round" stroke-linejoin="round"/>
<path d="M23.4 99.5H3" stroke="#3391E7" stroke-width="5" stroke-miterlimit="10" stroke-linecap="round" stroke-linejoin="round"/>
<path d="M99.9 23.4V3" stroke="#3391E7" stroke-width="5" stroke-miterlimit="10" stroke-linecap="round" stroke-linejoin="round"/>
<path d="M76.5 13.2V3" stroke="#3391E7" stroke-width="5" stroke-miterlimit="10" stroke-linecap="round" stroke-linejoin="round"/>
<path d="M53.1 23.4V3" stroke="#3391E7" stroke-width="5" stroke-miterlimit="10" stroke-linecap="round" stroke-linejoin="round"/>
<path d="M53.1 127.6V148" stroke="#3391E7" stroke-width="5" stroke-miterlimit="10" stroke-linecap="round" stroke-linejoin="round"/>
<path d="M76.5 137.8V148" stroke="#3391E7" stroke-width="5" stroke-miterlimit="10" stroke-linecap="round" stroke-linejoin="round"/>
<path d="M99.9 127.6V148" stroke="#3391E7" stroke-width="5" stroke-miterlimit="10" stroke-linecap="round" stroke-linejoin="round"/>
<path d="M127.7 52.5998V127.3H25.2V24.7998H127.7" stroke="#3391E7" stroke-width="5" stroke-miterlimit="10" stroke-linecap="round" stroke-linejoin="round"/>
</svg>
