<svg width="166" height="168" viewBox="0 0 166 168" fill="none" xmlns="http://www.w3.org/2000/svg">
<path d="M106.857 129.918V163.018C106.857 164.114 105.952 165.018 104.857 165.018H71.7566C70.6612 165.018 69.7566 164.114 69.7566 163.018V129.918C69.7566 128.823 70.6612 127.918 71.7566 127.918H104.857C105.952 127.918 106.857 128.823 106.857 129.918Z" stroke="black" stroke-width="4"/>
<path d="M163.557 15.1187V48.2187C163.557 49.3141 162.652 50.2187 161.557 50.2187H128.457C127.361 50.2187 126.457 49.3141 126.457 48.2187V15.1187C126.457 14.0232 127.361 13.1187 128.457 13.1187H161.557C162.652 13.1187 163.557 14.0232 163.557 15.1187Z" stroke="black" stroke-width="4"/>
<path d="M52.1566 35.1187V68.2187C52.1566 69.3141 51.2521 70.2187 50.1566 70.2187H17.0566C15.9612 70.2187 15.0566 69.3141 15.0566 68.2187V35.1187C15.0566 34.0232 15.9612 33.1187 17.0566 33.1187H50.1566C51.2521 33.1187 52.1566 34.0232 52.1566 35.1187Z" stroke="black" stroke-width="4"/>
<path d="M3 21.1534L3 62.2534H44.1V21.1534H3Z" stroke="#3391E7" stroke-width="5" stroke-miterlimit="10" stroke-linecap="round" stroke-linejoin="round"/>
<path d="M40.9565 21.1187C51.4565 13.6187 64.3565 9.11865 78.2565 9.11865C85.4565 9.11865 92.3566 10.3186 98.8566 12.5186" stroke="#3391E7" stroke-width="5" stroke-miterlimit="10" stroke-linecap="round" stroke-linejoin="round"/>
<path d="M57.7565 134.018C35.5565 126.518 18.7565 107.118 14.9565 83.4185" stroke="#3391E7" stroke-width="5" stroke-miterlimit="10" stroke-linecap="round" stroke-linejoin="round"/>
<path d="M141.457 62.3184C142.057 65.9184 142.357 69.6184 142.357 73.3184C142.357 92.7184 133.757 110.018 120.257 121.818" stroke="#3391E7" stroke-width="5" stroke-miterlimit="10" stroke-linecap="round" stroke-linejoin="round"/>
<path d="M91.4567 0.81856L101.757 9.51854C103.757 11.2185 103.157 14.5185 100.657 15.4185L87.9567 19.9185C85.4567 20.8185 82.8567 18.6185 83.3567 16.0185L85.7567 2.71855C86.2567 0.218554 89.4567 -0.88144 91.4567 0.81856Z" fill="#3391E7"/>
<path d="M132.757 123.518L120.057 128.018C117.557 128.918 114.957 126.718 115.457 124.118L117.857 110.818C118.357 108.218 121.457 107.018 123.557 108.818L133.857 117.518C135.857 119.318 135.257 122.618 132.757 123.518Z" fill="#3391E7"/>
<path d="M24.8566 95.1186L11.7566 98.1186C9.15657 98.7186 6.85657 96.3186 7.65657 93.7186L11.5566 80.8186C12.3566 78.2186 15.5566 77.5186 17.4566 79.4186L26.6566 89.3186C28.4566 91.2186 27.4566 94.5186 24.8566 95.1186Z" fill="#3391E7"/>
<path d="M114.427 21.1803V62.2803H155.527V21.1803H114.427Z" stroke="#3391E7" stroke-width="5" stroke-miterlimit="10" stroke-linecap="round" stroke-linejoin="round"/>
<path d="M98.8566 115.918H57.7566V157.018H98.8566V115.918Z" stroke="#3391E7" stroke-width="5" stroke-miterlimit="10" stroke-linecap="round" stroke-linejoin="round"/>
</svg>
