<svg width="134" height="151" viewBox="0 0 134 151" fill="none" xmlns="http://www.w3.org/2000/svg">
<path d="M103.8 50.0904V50.0998C103.8 53.1865 103.454 56.118 102.769 58.8998H31.3325C30.6468 56.0985 30.3 53.1052 30.3 50.0998C30.3 29.8044 46.8046 13.2998 67.1 13.2998C87.4939 13.2998 103.895 29.8008 103.8 50.0904Z" stroke="black" stroke-width="4"/>
<path d="M82.9701 23L64.3024 37.7992L72.3034 37.2966L56.4859 70.0343L50.0106 54.042L44.3848 67.0093L48.7029 63.6841L55.5619 80.6486L56.1077 82L56.7653 80.6633L77.4542 38.6038L83 45.4364L82.9701 23Z" fill="black"/>
<path d="M43.9787 69.7544C42.3338 69.7544 41 71.0708 41 72.6966C41 73.2323 41 73.5398 41 74.0756C41 75.7013 42.3338 77.0196 43.9787 77.0196C45.6236 77.0196 46.9574 75.7013 46.9574 74.0756C46.9574 73.5398 46.9574 73.2323 46.9574 72.6966C46.9556 71.0708 45.6236 69.7544 43.9787 69.7544Z" fill="white"/>
<path d="M21.1 60.2C20.4 56.9 20 53.5 20 50.1C20 24.1 41.1 3 67.1 3C75.7 3 83.7 5.30005 90.7 9.30005" stroke="#2C81CF" stroke-width="5" stroke-miterlimit="10" stroke-linecap="round" stroke-linejoin="round"/>
<path d="M107.7 26.2002C111.8 33.2002 114.2 41.4002 114.2 50.1002C114.2 53.4002 113.9 56.5002 113.2 59.6002" stroke="#2C81CF" stroke-width="5" stroke-miterlimit="10" stroke-linecap="round" stroke-linejoin="round"/>
<path d="M118.9 148.1H15.4C8.59996 148.1 3 142.6 3 135.7V72.6002C3 65.8002 8.49996 60.2002 15.4 60.2002H118.9C125.7 60.2002 131.3 65.7002 131.3 72.6002V135.7C131.3 142.5 125.7 148.1 118.9 148.1Z" fill="white" stroke="#2C81CF" stroke-width="5" stroke-miterlimit="10" stroke-linecap="round" stroke-linejoin="round"/>
<path d="M84.8 91.1001H131.3V117.2H84.8C79.8 117.2 75.8 113.2 75.8 108.2V100.1C75.8 95.1001 79.9 91.1001 84.8 91.1001Z" stroke="#2C81CF" stroke-width="5" stroke-miterlimit="10" stroke-linecap="round" stroke-linejoin="round"/>
<path d="M95.2999 104.2C95.2999 107.6 92.4999 110.4 89.0999 110.4C85.6999 110.4 82.8999 107.6 82.8999 104.2C82.8999 100.8 85.6999 98 89.0999 98C92.4999 98 95.2999 100.7 95.2999 104.2Z" fill="#2C81CF"/>
</svg>
